<svg version="1.1" id="Layer_1" xmlns="http://www.w3.org/2000/svg" xmlns:xlink="http://www.w3.org/1999/xlink" x="0px" y="0px"
	 width="100%" viewBox="0 0 515 109" enable-background="new 0 0 515 109" xml:space="preserve">
<path fill="#FEFFFF" opacity="1.000000" stroke="none" 
	d="
M498.000000,110.000000 
	C378.645782,110.000000 259.291534,110.000000 139.468628,109.563095 
	C140.346283,100.337410 141.527130,91.519379 143.074768,82.766197 
	C145.936676,66.579773 149.031006,50.434551 151.994614,34.265953 
	C154.026093,23.182745 156.000229,12.089023 158.000000,1.000000 
	C277.333344,1.000000 396.666687,1.000000 516.000000,1.000000 
	C516.000000,5.395543 516.000000,9.723643 515.645630,14.226044 
	C514.874329,14.895369 514.178833,15.341358 514.081726,15.892716 
	C512.344727,25.758842 510.750305,35.650311 508.982269,45.510700 
	C506.761597,57.895515 504.295654,70.237122 502.155670,82.635376 
	C500.586792,91.725204 499.372375,100.876236 498.000000,110.000000 
M214.669800,87.999947 
	C219.937668,87.999947 225.205536,87.999947 231.010498,87.999947 
	C226.745529,82.326752 222.812576,77.095192 218.910812,71.905136 
	C225.002319,65.000168 228.446701,58.350349 229.008102,52.841820 
	C231.097733,32.337887 216.165161,17.028204 197.046249,18.047165 
	C176.517609,19.141258 163.991562,36.159431 168.594452,56.965660 
	C171.508179,70.136353 185.279984,80.625320 198.324402,78.995064 
	C201.605499,78.584999 203.899399,79.357796 205.077667,82.948227 
	C206.382034,86.922928 209.284180,88.990990 214.669800,87.999947 
M464.545685,85.966415 
	C472.345245,67.750877 480.144806,49.535336 488.081177,31.000294 
	C481.705353,31.000294 475.710541,30.810911 469.745483,31.147873 
	C468.432007,31.222069 466.637939,32.919888 466.068207,34.287811 
	C463.502411,40.448380 461.297607,46.759308 458.729340,53.641304 
	C455.763550,45.628796 453.106049,38.449127 450.417938,31.186749 
	C443.441406,31.186749 436.345184,31.186749 429.260498,31.186749 
	C429.206299,31.689869 429.044830,32.063210 429.156097,32.316952 
	C434.435516,44.358479 439.492554,56.506943 445.147736,68.370132 
	C447.786224,73.905045 448.263885,78.716080 445.069031,84.132729 
	C441.994690,89.345039 439.561584,94.935555 436.526398,100.999947 
	C441.141083,100.999947 445.072754,100.999954 449.004425,100.999954 
	C458.709625,100.999954 458.704346,100.998024 461.984528,91.961548 
	C462.640045,90.155571 463.352631,88.370285 464.545685,85.966415 
M253.999954,46.482979 
	C253.999954,41.386509 253.999954,36.290035 253.999954,31.296936 
	C247.335953,31.296936 241.262970,31.296936 235.000580,31.296936 
	C235.000580,41.904476 234.490433,52.248913 235.151199,62.518005 
	C235.752335,71.860443 241.352631,80.079376 252.718826,78.865562 
	C257.197479,78.387283 261.515350,76.403564 265.939911,75.095474 
	C265.977112,75.849037 266.047241,77.269188 266.114746,78.636757 
	C272.835571,78.636757 279.390869,78.636757 285.636169,78.636757 
	C285.636169,62.533642 285.636169,46.794662 285.636169,31.353935 
	C279.185913,31.353935 273.101624,31.353935 267.433319,31.353935 
	C266.942413,40.460152 266.491058,49.194881 265.991974,57.926888 
	C265.767975,61.846970 263.325287,63.028114 259.751404,63.030533 
	C255.585342,63.033352 254.486786,60.089203 254.087769,56.958183 
	C253.690720,53.842804 254.000244,50.637375 253.999954,46.482979 
M358.999969,73.421776 
	C358.999969,69.994965 358.999969,66.568153 358.999969,62.735649 
	C352.355530,62.735649 346.336700,62.735649 339.242371,62.735649 
	C343.433136,59.130257 346.958588,56.420570 350.086487,53.311016 
	C352.947052,50.467239 356.471252,47.568096 357.700592,44.002892 
	C359.018127,40.181812 357.997833,35.554607 357.997833,31.245020 
	C344.434479,31.245020 331.367340,31.245020 318.245972,31.245020 
	C318.245972,36.564331 318.245972,41.634872 318.245972,47.109978 
	C323.852844,47.109978 329.227295,47.109978 335.912781,47.109978 
	C331.633484,50.789165 328.172333,53.495701 325.041107,56.541397 
	C322.490662,59.022182 319.101746,61.589577 318.298584,64.691772 
	C317.145386,69.145805 318.004333,74.120804 318.004333,78.853622 
	C331.936005,78.853622 345.217438,78.853622 358.999969,78.853622 
	C358.999969,77.290855 358.999969,75.842621 358.999969,73.421776 
M401.941406,78.271446 
	C401.941406,73.190750 401.941406,68.110046 401.941406,62.842354 
	C395.338287,62.842354 389.410767,62.842354 382.694336,62.842354 
	C388.338226,57.559341 393.490143,52.804829 398.544220,47.948505 
	C399.552887,46.979290 400.805725,45.660919 400.884338,44.435436 
	C401.167114,40.028133 400.995331,35.591660 400.995331,31.304859 
	C387.314362,31.304859 374.244934,31.304859 361.306702,31.304859 
	C361.306702,36.685966 361.306702,41.758110 361.306702,47.249336 
	C366.965271,47.249336 372.324493,47.249336 378.149719,47.249336 
	C372.882385,52.527885 368.022217,57.290947 363.313965,62.199764 
	C362.267822,63.290474 361.206238,64.855408 361.104614,66.270447 
	C360.810120,70.370110 361.000366,74.504585 361.000366,78.943909 
	C374.684296,78.943909 387.967102,78.943909 401.941406,78.271446 
M425.268524,16.057989 
	C419.312561,16.057989 413.356567,16.057989 407.203918,16.057989 
	C407.203918,37.122864 407.203918,57.859886 407.203918,78.798477 
	C413.462006,78.798477 419.533295,78.798477 425.943665,78.798477 
	C425.943665,57.985394 425.943665,37.367073 425.268524,16.057989 
M293.000031,65.483353 
	C293.000244,68.815010 292.725891,72.181190 293.138336,75.461006 
	C293.299194,76.740204 294.947723,78.773781 296.018097,78.839302 
	C301.592773,79.180519 307.199493,78.998344 312.714935,78.998344 
	C312.714935,62.686699 312.714935,46.952984 312.714935,31.286171 
	C306.021973,31.286171 299.618805,31.286171 293.000031,31.286171 
	C293.000031,42.543274 293.000031,53.515530 293.000031,65.483353 
M297.986267,26.984575 
	C298.608643,27.123978 299.253876,27.199446 299.849792,27.412750 
	C305.367859,29.387854 311.351959,26.958662 313.820770,21.262833 
	C315.789673,16.720345 313.099548,12.330932 307.461639,9.877010 
	C302.152954,7.566389 295.711212,9.554487 293.302795,14.246833 
	C290.792084,19.138412 291.368256,20.977026 297.986267,26.984575 
z"/>
<path fill="#FEFFFF" opacity="1.000000" stroke="none" 
	d="
M134.000000,110.000000 
	C90.833336,110.000000 47.666637,110.014221 4.500147,109.927055 
	C3.282704,109.924599 0.528686,111.533134 1.359773,107.800720 
	C2.132942,107.102188 2.824378,106.650497 2.919084,106.096741 
	C5.317952,92.070755 7.558297,78.017143 10.030404,64.004356 
	C12.188310,51.772579 14.697378,39.602768 16.857147,27.371298 
	C18.404139,18.610184 19.630556,9.792464 21.000000,1.000000 
	C64.687561,1.000000 108.375122,1.000000 152.531250,1.419049 
	C152.151367,6.250034 151.264084,10.654928 150.462296,15.075330 
	C148.619492,25.235094 146.803940,35.399864 145.004211,45.567360 
	C143.147644,56.056046 141.286102,66.544083 139.494339,77.043930 
	C137.620941,88.022125 135.828079,99.014069 134.000000,110.000000 
M57.898960,11.007474 
	C54.733826,15.035722 51.622272,19.108013 48.369957,23.064596 
	C47.429787,24.208361 46.231102,25.509960 44.902840,25.904984 
	C35.453175,28.715288 27.450394,42.090324 32.411003,53.047493 
	C32.805012,53.917793 32.675400,55.306797 32.263538,56.216885 
	C27.978132,65.686302 34.236740,81.138115 44.121853,83.767113 
	C47.415249,84.643005 48.165462,86.224548 49.039661,88.749130 
	C51.671890,96.350700 58.360977,101.000854 66.426956,100.998024 
	C71.248734,100.996338 76.079422,100.782181 80.890480,101.003395 
	C91.998177,101.514130 101.120995,101.406128 106.293961,87.547981 
	C106.846008,86.069054 108.774254,84.682129 110.374680,84.085121 
	C120.282135,80.389297 125.846504,69.793633 123.231743,59.545349 
	C122.718216,57.532612 122.508110,55.162514 123.052010,53.205715 
	C126.385315,41.213665 121.262253,30.642759 109.725533,25.943111 
	C108.623611,25.494228 107.500610,24.294079 107.050491,23.175795 
	C103.595207,14.591400 97.082993,7.752496 85.867607,8.984140 
	C82.330223,9.372607 78.649330,10.415649 75.267845,9.823780 
	C69.540756,8.821353 64.072792,8.175104 57.898960,11.007474 
z"/>
<path fill="" opacity="0.000000" stroke="none" 
	d="
M20.530956,1.000000 
	C19.630556,9.792464 18.404139,18.610184 16.857147,27.371298 
	C14.697378,39.602768 12.188310,51.772579 10.030404,64.004356 
	C7.558297,78.017143 5.317952,92.070755 2.919084,106.096741 
	C2.824378,106.650497 2.132942,107.102188 1.359773,107.300720 
	C1.000000,71.790001 1.000000,36.580002 1.000000,1.000000 
	C7.349184,1.000000 13.705549,1.000000 20.530956,1.000000 
z"/>
<path fill="" opacity="0.000000" stroke="none" 
	d="
M498.469696,110.000000 
	C499.372375,100.876236 500.586792,91.725204 502.155670,82.635376 
	C504.295654,70.237122 506.761597,57.895515 508.982269,45.510700 
	C510.750305,35.650311 512.344727,25.758842 514.081726,15.892716 
	C514.178833,15.341358 514.874329,14.895369 515.645630,14.700171 
	C516.000000,46.542980 516.000000,78.085960 516.000000,110.000000 
	C510.318512,110.000000 504.628967,110.000000 498.469696,110.000000 
z"/>
<path fill="" opacity="0.000000" stroke="none" 
	d="
M134.416656,110.000000 
	C135.828079,99.014069 137.620941,88.022125 139.494339,77.043930 
	C141.286102,66.544083 143.147644,56.056046 145.004211,45.567360 
	C146.803940,35.399864 148.619492,25.235094 150.462296,15.075330 
	C151.264084,10.654928 152.151367,6.250034 152.999908,1.419049 
	C154.388885,1.000000 155.777786,1.000000 157.583344,1.000000 
	C156.000229,12.089023 154.026093,23.182745 151.994614,34.265953 
	C149.031006,50.434551 145.936676,66.579773 143.074768,82.766197 
	C141.527130,91.519379 140.346283,100.337410 138.999969,109.563095 
	C137.611115,110.000000 136.222214,110.000000 134.416656,110.000000 
z"/>
<path fill="" opacity="0.000000" stroke="none" 
	d="
M214.199524,87.999947 
	C209.284180,88.990990 206.382034,86.922928 205.077667,82.948227 
	C203.899399,79.357796 201.605499,78.584999 198.324402,78.995064 
	C185.279984,80.625320 171.508179,70.136353 168.594452,56.965660 
	C163.991562,36.159431 176.517609,19.141258 197.046249,18.047165 
	C216.165161,17.028204 231.097733,32.337887 229.008102,52.841820 
	C228.446701,58.350349 225.002319,65.000168 218.910812,71.905136 
	C222.812576,77.095192 226.745529,82.326752 231.010498,87.999947 
	C225.205536,87.999947 219.937668,87.999947 214.199524,87.999947 
M189.018311,40.816292 
	C188.390533,42.444817 187.602097,44.031513 187.165222,45.709736 
	C185.869598,50.686741 189.722412,59.446033 193.736832,60.900536 
	C199.420990,62.960014 206.387344,60.373741 208.326721,55.092915 
	C210.538345,49.070805 209.886581,39.432655 203.479980,37.049015 
	C198.449539,35.177387 193.789871,35.782234 189.018311,40.816292 
z"/>
<path fill="" opacity="0.000000" stroke="none" 
	d="
M464.292297,86.270935 
	C463.352631,88.370285 462.640045,90.155571 461.984528,91.961548 
	C458.704346,100.998024 458.709625,100.999954 449.004425,100.999954 
	C445.072754,100.999954 441.141083,100.999947 436.526398,100.999947 
	C439.561584,94.935555 441.994690,89.345039 445.069031,84.132729 
	C448.263885,78.716080 447.786224,73.905045 445.147736,68.370132 
	C439.492554,56.506943 434.435516,44.358479 429.156097,32.316952 
	C429.044830,32.063210 429.206299,31.689869 429.260498,31.186749 
	C436.345184,31.186749 443.441406,31.186749 450.417938,31.186749 
	C453.106049,38.449127 455.763550,45.628796 458.729340,53.641304 
	C461.297607,46.759308 463.502411,40.448380 466.068207,34.287811 
	C466.637939,32.919888 468.432007,31.222069 469.745483,31.147873 
	C475.710541,30.810911 481.705353,31.000294 488.081177,31.000294 
	C480.144806,49.535336 472.345245,67.750877 464.292297,86.270935 
z"/>
<path fill="" opacity="0.000000" stroke="none" 
	d="
M253.999954,46.977203 
	C254.000244,50.637375 253.690720,53.842804 254.087769,56.958183 
	C254.486786,60.089203 255.585342,63.033352 259.751404,63.030533 
	C263.325287,63.028114 265.767975,61.846970 265.991974,57.926888 
	C266.491058,49.194881 266.942413,40.460152 267.433319,31.353935 
	C273.101624,31.353935 279.185913,31.353935 285.636169,31.353935 
	C285.636169,46.794662 285.636169,62.533642 285.636169,78.636757 
	C279.390869,78.636757 272.835571,78.636757 266.114746,78.636757 
	C266.047241,77.269188 265.977112,75.849037 265.939911,75.095474 
	C261.515350,76.403564 257.197479,78.387283 252.718826,78.865562 
	C241.352631,80.079376 235.752335,71.860443 235.151199,62.518005 
	C234.490433,52.248913 235.000580,41.904476 235.000580,31.296936 
	C241.262970,31.296936 247.335953,31.296936 253.999954,31.296936 
	C253.999954,36.290035 253.999954,41.386509 253.999954,46.977203 
z"/>
<path fill="" opacity="0.000000" stroke="none" 
	d="
M358.999969,73.908081 
	C358.999969,75.842621 358.999969,77.290855 358.999969,78.853622 
	C345.217438,78.853622 331.936005,78.853622 318.004333,78.853622 
	C318.004333,74.120804 317.145386,69.145805 318.298584,64.691772 
	C319.101746,61.589577 322.490662,59.022182 325.041107,56.541397 
	C328.172333,53.495701 331.633484,50.789165 335.912781,47.109978 
	C329.227295,47.109978 323.852844,47.109978 318.245972,47.109978 
	C318.245972,41.634872 318.245972,36.564331 318.245972,31.245020 
	C331.367340,31.245020 344.434479,31.245020 357.997833,31.245020 
	C357.997833,35.554607 359.018127,40.181812 357.700592,44.002892 
	C356.471252,47.568096 352.947052,50.467239 350.086487,53.311016 
	C346.958588,56.420570 343.433136,59.130257 339.242371,62.735649 
	C346.336700,62.735649 352.355530,62.735649 358.999969,62.735649 
	C358.999969,66.568153 358.999969,69.994965 358.999969,73.908081 
z"/>
<path fill="" opacity="0.000000" stroke="none" 
	d="
M401.595673,78.607681 
	C387.967102,78.943909 374.684296,78.943909 361.000366,78.943909 
	C361.000366,74.504585 360.810120,70.370110 361.104614,66.270447 
	C361.206238,64.855408 362.267822,63.290474 363.313965,62.199764 
	C368.022217,57.290947 372.882385,52.527885 378.149719,47.249336 
	C372.324493,47.249336 366.965271,47.249336 361.306702,47.249336 
	C361.306702,41.758110 361.306702,36.685966 361.306702,31.304859 
	C374.244934,31.304859 387.314362,31.304859 400.995331,31.304859 
	C400.995331,35.591660 401.167114,40.028133 400.884338,44.435436 
	C400.805725,45.660919 399.552887,46.979290 398.544220,47.948505 
	C393.490143,52.804829 388.338226,57.559341 382.694336,62.842354 
	C389.410767,62.842354 395.338287,62.842354 401.941406,62.842354 
	C401.941406,68.110046 401.941406,73.190750 401.595673,78.607681 
z"/>
<path fill="" opacity="0.000000" stroke="none" 
	d="
M425.606079,16.403370 
	C425.943665,37.367073 425.943665,57.985394 425.943665,78.798477 
	C419.533295,78.798477 413.462006,78.798477 407.203918,78.798477 
	C407.203918,57.859886 407.203918,37.122864 407.203918,16.057989 
	C413.356567,16.057989 419.312561,16.057989 425.606079,16.403370 
z"/>
<path fill="" opacity="0.000000" stroke="none" 
	d="
M293.000031,64.985565 
	C293.000031,53.515530 293.000031,42.543274 293.000031,31.286171 
	C299.618805,31.286171 306.021973,31.286171 312.714935,31.286171 
	C312.714935,46.952984 312.714935,62.686699 312.714935,78.998344 
	C307.199493,78.998344 301.592773,79.180519 296.018097,78.839302 
	C294.947723,78.773781 293.299194,76.740204 293.138336,75.461006 
	C292.725891,72.181190 293.000244,68.815010 293.000031,64.985565 
z"/>
<path fill="" opacity="0.000000" stroke="none" 
	d="
M297.603882,26.867916 
	C291.368256,20.977026 290.792084,19.138412 293.302795,14.246833 
	C295.711212,9.554487 302.152954,7.566389 307.461639,9.877010 
	C313.099548,12.330932 315.789673,16.720345 313.820770,21.262833 
	C311.351959,26.958662 305.367859,29.387854 299.849792,27.412750 
	C299.253876,27.199446 298.608643,27.123978 297.603882,26.867916 
z"/>
<path fill="" opacity="0.000000" stroke="none" 
	d="
M58.286995,10.927841 
	C64.072792,8.175104 69.540756,8.821353 75.267845,9.823780 
	C78.649330,10.415649 82.330223,9.372607 85.867607,8.984140 
	C97.082993,7.752496 103.595207,14.591400 107.050491,23.175795 
	C107.500610,24.294079 108.623611,25.494228 109.725533,25.943111 
	C121.262253,30.642759 126.385315,41.213665 123.052010,53.205715 
	C122.508110,55.162514 122.718216,57.532612 123.231743,59.545349 
	C125.846504,69.793633 120.282135,80.389297 110.374680,84.085121 
	C108.774254,84.682129 106.846008,86.069054 106.293961,87.547981 
	C101.120995,101.406128 91.998177,101.514130 80.890480,101.003395 
	C76.079422,100.782181 71.248734,100.996338 66.426956,100.998024 
	C58.360977,101.000854 51.671890,96.350700 49.039661,88.749130 
	C48.165462,86.224548 47.415249,84.643005 44.121853,83.767113 
	C34.236740,81.138115 27.978132,65.686302 32.263538,56.216885 
	C32.675400,55.306797 32.805012,53.917793 32.411003,53.047493 
	C27.450394,42.090324 35.453175,28.715288 44.902840,25.904984 
	C46.231102,25.509960 47.429787,24.208361 48.369957,23.064596 
	C51.622272,19.108013 54.733826,15.035722 58.286995,10.927841 
M75.942879,40.414188 
	C76.902870,40.500774 78.196281,41.035095 78.772346,40.606113 
	C86.226753,35.055122 85.987946,22.024574 77.546799,16.142963 
	C68.967117,21.858131 69.322334,34.480900 75.942879,40.414188 
M110.177597,50.015461 
	C102.021690,46.862064 96.715225,48.329704 90.402145,55.315342 
	C99.077026,63.920555 107.923119,63.888130 116.868896,55.040794 
	C114.947838,53.536102 112.913902,51.942993 110.177597,50.015461 
M75.944916,69.583954 
	C68.495476,77.179840 69.205055,86.757683 77.732338,93.710403 
	C84.974678,88.267586 85.556099,79.112381 81.951073,73.332428 
	C80.794044,71.477371 78.306221,70.452339 75.944916,69.583954 
M50.680271,61.931671 
	C55.502327,60.117264 60.324379,58.302853 65.413612,56.387913 
	C57.941254,46.075542 45.015625,46.105385 37.771793,56.136600 
	C41.949272,57.953590 45.979801,59.706665 50.680271,61.931671 
M100.374390,80.001808 
	C101.126114,80.202827 101.877838,80.403839 103.020599,80.709427 
	C102.577950,69.692215 92.617737,65.923553 87.632950,58.997261 
	C85.330147,61.199665 83.394478,63.050938 80.722458,65.606453 
	C86.973656,70.374748 93.282028,75.186661 100.374390,80.001808 
M57.973579,68.541115 
	C54.539047,71.866112 51.856091,75.535339 52.107006,80.571106 
	C62.739727,79.510071 66.894272,70.128883 73.278664,65.272034 
	C71.415504,63.104313 69.619652,61.014912 67.482941,58.528923 
	C64.395515,61.779446 61.431202,64.900352 57.973579,68.541115 
M84.009010,42.484959 
	C82.833038,43.302647 81.657066,44.120338 81.498032,44.230915 
	C83.594620,47.075447 85.159157,49.198116 87.037987,51.747204 
	C92.633377,44.355492 101.763771,40.440491 102.439430,29.688715 
	C98.896599,30.686554 95.483406,31.927380 92.693611,34.005215 
	C89.663971,36.261696 87.214256,39.296795 84.009010,42.484959 
M67.639481,50.964405 
	C69.787231,49.244781 71.934990,47.525158 74.498032,45.473034 
	C66.695686,40.452042 63.238850,29.896156 50.461704,30.026232 
	C53.190250,34.347141 54.892967,37.773369 57.276146,40.632385 
	C60.239277,44.187145 63.764679,47.273216 67.639481,50.964405 
M98.412010,25.956741 
	C99.652306,25.404135 100.892601,24.851530 102.087708,24.319057 
	C99.109459,15.136112 88.712364,10.126642 83.358452,13.889534 
	C85.660820,19.580496 87.860985,25.018847 89.852135,29.940527 
	C92.217087,28.739347 94.914398,27.369362 98.412010,25.956741 
M54.339649,89.828064 
	C58.881165,95.389061 64.490707,98.173958 71.655884,96.702744 
	C69.454559,91.110863 67.289680,85.611557 65.266464,80.472115 
	C61.301991,82.232430 57.271008,84.022278 52.940754,85.945007 
	C53.219830,86.758133 53.625904,87.941284 54.339649,89.828064 
M67.937386,22.484020 
	C69.323891,19.481470 70.710388,16.478922 72.196449,13.260777 
	C61.562565,12.607807 54.130817,17.298958 53.387478,23.984245 
	C57.582813,25.930960 61.569492,27.780855 65.921204,29.800135 
	C66.381950,27.679817 66.881554,25.380672 67.937386,22.484020 
M52.041653,42.471897 
	C50.272858,38.460754 48.504063,34.449608 46.687580,30.330326 
	C37.613235,32.930214 33.921680,41.736107 36.520767,49.618587 
	C40.054340,47.794762 43.658871,45.770222 47.412472,44.075939 
	C48.960499,43.377197 50.828773,43.387939 52.041653,42.471897 
M51.974468,68.541344 
	C52.553925,67.834534 53.133377,67.127724 53.013206,67.274307 
	C47.286949,65.221924 41.576790,63.175320 36.043285,61.192024 
	C35.866169,72.806625 38.138340,76.565483 46.891556,79.578018 
	C48.414658,76.031242 49.911377,72.545891 51.974468,68.541344 
M118.100243,70.404411 
	C118.555733,67.072510 119.011215,63.740616 119.381668,61.030754 
	C113.426735,63.223076 107.855278,65.274223 102.875015,67.107719 
	C104.461266,70.938339 106.261833,75.286507 108.589180,80.906815 
	C111.729546,77.654793 114.856750,74.416405 118.100243,70.404411 
M117.985222,38.824833 
	C115.027161,35.714188 112.069092,32.603542 108.860374,29.229309 
	C106.390388,35.056255 104.513351,39.484367 103.193939,42.597000 
	C108.541794,44.901230 113.862984,47.193962 119.397568,49.578644 
	C119.019859,46.663757 118.562317,43.132774 117.985222,38.824833 
M91.387589,81.063255 
	C90.607529,81.015137 89.214165,80.741875 89.137093,80.951820 
	C87.203506,86.219040 85.408493,91.537132 83.602287,96.807594 
	C94.036812,97.437958 100.873375,93.164246 101.657333,86.053314 
	C98.295181,84.483971 95.143875,83.013039 91.387589,81.063255 
M83.267838,55.971985 
	C83.407730,55.882084 83.575012,55.815186 83.677177,55.693581 
	C83.737572,55.621696 83.748787,55.410099 83.690865,55.351456 
	C81.624153,53.258873 79.546638,51.176956 77.676033,49.299690 
	C75.394798,51.408180 73.203613,53.433449 71.320740,55.173748 
	C73.484268,57.156788 75.515526,59.018589 77.905647,61.209316 
	C79.448364,59.496246 81.006950,57.765553 83.267838,55.971985 
z"/>
<path fill="#FEFFFF" opacity="1.000000" stroke="none" 
	d="
M189.194748,40.459930 
	C193.789871,35.782234 198.449539,35.177387 203.479980,37.049015 
	C209.886581,39.432655 210.538345,49.070805 208.326721,55.092915 
	C206.387344,60.373741 199.420990,62.960014 193.736832,60.900536 
	C189.722412,59.446033 185.869598,50.686741 187.165222,45.709736 
	C187.602097,44.031513 188.390533,42.444817 189.194748,40.459930 
z"/>
<path fill="#FEFFFF" opacity="1.000000" stroke="none" 
	d="
M75.669518,40.172432 
	C69.322334,34.480900 68.967117,21.858131 77.546799,16.142963 
	C85.987946,22.024574 86.226753,35.055122 78.772346,40.606113 
	C78.196281,41.035095 76.902870,40.500774 75.669518,40.172432 
z"/>
<path fill="#FEFFFF" opacity="1.000000" stroke="none" 
	d="
M110.528778,50.182674 
	C112.913902,51.942993 114.947838,53.536102 116.868896,55.040794 
	C107.923119,63.888130 99.077026,63.920555 90.402145,55.315342 
	C96.715225,48.329704 102.021690,46.862064 110.528778,50.182674 
z"/>
<path fill="#FEFFFF" opacity="1.000000" stroke="none" 
	d="
M76.186081,69.315765 
	C78.306221,70.452339 80.794044,71.477371 81.951073,73.332428 
	C85.556099,79.112381 84.974678,88.267586 77.732338,93.710403 
	C69.205055,86.757683 68.495476,77.179840 76.186081,69.315765 
z"/>
<path fill="#FEFFFF" opacity="1.000000" stroke="none" 
	d="
M50.345303,61.695705 
	C45.979801,59.706665 41.949272,57.953590 37.771793,56.136600 
	C45.015625,46.105385 57.941254,46.075542 65.413612,56.387913 
	C60.324379,58.302853 55.502327,60.117264 50.345303,61.695705 
z"/>
<path fill="#FEFFFF" opacity="1.000000" stroke="none" 
	d="
M99.982399,80.000191 
	C93.282028,75.186661 86.973656,70.374748 80.722458,65.606453 
	C83.394478,63.050938 85.330147,61.199665 87.632950,58.997261 
	C92.617737,65.923553 102.577950,69.692215 103.020599,80.709427 
	C101.877838,80.403839 101.126114,80.202827 99.982399,80.000191 
z"/>
<path fill="#FEFFFF" opacity="1.000000" stroke="none" 
	d="
M58.220234,68.281189 
	C61.431202,64.900352 64.395515,61.779446 67.482941,58.528923 
	C69.619652,61.014912 71.415504,63.104313 73.278664,65.272034 
	C66.894272,70.128883 62.739727,79.510071 52.107006,80.571106 
	C51.856091,75.535339 54.539047,71.866112 58.220234,68.281189 
z"/>
<path fill="#FEFFFF" opacity="1.000000" stroke="none" 
	d="
M84.260330,42.238670 
	C87.214256,39.296795 89.663971,36.261696 92.693611,34.005215 
	C95.483406,31.927380 98.896599,30.686554 102.439430,29.688715 
	C101.763771,40.440491 92.633377,44.355492 87.037987,51.747204 
	C85.159157,49.198116 83.594620,47.075447 81.498032,44.230915 
	C81.657066,44.120338 82.833038,43.302647 84.260330,42.238670 
z"/>
<path fill="#FEFFFF" opacity="1.000000" stroke="none" 
	d="
M67.343369,50.763054 
	C63.764679,47.273216 60.239277,44.187145 57.276146,40.632385 
	C54.892967,37.773369 53.190250,34.347141 50.461704,30.026232 
	C63.238850,29.896156 66.695686,40.452042 74.498032,45.473034 
	C71.934990,47.525158 69.787231,49.244781 67.343369,50.763054 
z"/>
<path fill="#FEFFFF" opacity="1.000000" stroke="none" 
	d="
M98.011856,25.978058 
	C94.914398,27.369362 92.217087,28.739347 89.852135,29.940527 
	C87.860985,25.018847 85.660820,19.580496 83.358452,13.889534 
	C88.712364,10.126642 99.109459,15.136112 102.087708,24.319057 
	C100.892601,24.851530 99.652306,25.404135 98.011856,25.978058 
z"/>
<path fill="#FEFFFF" opacity="1.000000" stroke="none" 
	d="
M54.185814,89.476250 
	C53.625904,87.941284 53.219830,86.758133 52.940754,85.945007 
	C57.271008,84.022278 61.301991,82.232430 65.266464,80.472115 
	C67.289680,85.611557 69.454559,91.110863 71.655884,96.702744 
	C64.490707,98.173958 58.881165,95.389061 54.185814,89.476250 
z"/>
<path fill="#FEFEFE" opacity="1.000000" stroke="none" 
	d="
M67.659271,22.782776 
	C66.881554,25.380672 66.381950,27.679817 65.921204,29.800135 
	C61.569492,27.780855 57.582813,25.930960 53.387478,23.984245 
	C54.130817,17.298958 61.562565,12.607807 72.196449,13.260777 
	C70.710388,16.478922 69.323891,19.481470 67.659271,22.782776 
z"/>
<path fill="#FEFFFF" opacity="1.000000" stroke="none" 
	d="
M52.296520,42.773941 
	C50.828773,43.387939 48.960499,43.377197 47.412472,44.075939 
	C43.658871,45.770222 40.054340,47.794762 36.520767,49.618587 
	C33.921680,41.736107 37.613235,32.930214 46.687580,30.330326 
	C48.504063,34.449608 50.272858,38.460754 52.296520,42.773941 
z"/>
<path fill="#FEFFFF" opacity="1.000000" stroke="none" 
	d="
M51.691284,68.800949 
	C49.911377,72.545891 48.414658,76.031242 46.891556,79.578018 
	C38.138340,76.565483 35.866169,72.806625 36.043285,61.192024 
	C41.576790,63.175320 47.286949,65.221924 53.013206,67.274307 
	C53.133377,67.127724 52.553925,67.834534 51.691284,68.800949 
z"/>
<path fill="#FEFFFF" opacity="1.000000" stroke="none" 
	d="
M118.042099,70.791214 
	C114.856750,74.416405 111.729546,77.654793 108.589180,80.906815 
	C106.261833,75.286507 104.461266,70.938339 102.875015,67.107719 
	C107.855278,65.274223 113.426735,63.223076 119.381668,61.030754 
	C119.011215,63.740616 118.555733,67.072510 118.042099,70.791214 
z"/>
<path fill="#FDFEFE" opacity="1.000000" stroke="none" 
	d="
M118.044998,39.213310 
	C118.562317,43.132774 119.019859,46.663757 119.397568,49.578644 
	C113.862984,47.193962 108.541794,44.901230 103.193939,42.597000 
	C104.513351,39.484367 106.390388,35.056255 108.860374,29.229309 
	C112.069092,32.603542 115.027161,35.714188 118.044998,39.213310 
z"/>
<path fill="#FEFFFF" opacity="1.000000" stroke="none" 
	d="
M91.690079,81.302681 
	C95.143875,83.013039 98.295181,84.483971 101.657333,86.053314 
	C100.873375,93.164246 94.036812,97.437958 83.602287,96.807594 
	C85.408493,91.537132 87.203506,86.219040 89.137093,80.951820 
	C89.214165,80.741875 90.607529,81.015137 91.690079,81.302681 
z"/>
<path fill="#FEFFFF" opacity="1.000000" stroke="none" 
	d="
M82.916687,56.003426 
	C81.006950,57.765553 79.448364,59.496246 77.905647,61.209316 
	C75.515526,59.018589 73.484268,57.156788 71.320740,55.173748 
	C73.203613,53.433449 75.394798,51.408180 77.676033,49.299690 
	C79.546638,51.176956 81.624153,53.258873 83.690865,55.351456 
	C83.748787,55.410099 83.737572,55.621696 83.677177,55.693581 
	C83.575012,55.815186 83.407730,55.882084 82.916687,56.003426 
z"/>
</svg>